<?xml version="1.0" standalone="no"?>
<!DOCTYPE svg PUBLIC "-//W3C//DTD SVG 20010904//EN"
 "http://www.w3.org/TR/2001/REC-SVG-20010904/DTD/svg10.dtd">
<svg version="1.0" xmlns="http://www.w3.org/2000/svg"
 width="400.000000pt" height="400.000000pt" viewBox="0 0 400.000000 400.000000"
 preserveAspectRatio="xMidYMid meet">

<g transform="translate(0.000000,400.000000) scale(0.100000,-0.100000)"
fill="#000000" stroke="none">
<path d="M1671 3971 c-38 -10 -42 -40 -13 -106 17 -42 25 -80 26 -123 1 -73
-15 -94 -81 -107 -94 -17 -244 -129 -288 -215 -19 -37 -31 -37 -101 -4 -65 30
-107 27 -153 -12 -98 -82 -104 -280 -15 -444 56 -102 98 -147 154 -167 l50
-18 -2 -95 c-1 -79 2 -102 20 -136 53 -104 215 -184 374 -184 l64 0 -1 -61
c-1 -60 -2 -62 -48 -102 -26 -23 -54 -58 -62 -78 -20 -52 -74 -93 -221 -174
-124 -67 -194 -117 -194 -137 0 -5 11 4 25 20 13 16 71 53 127 82 57 29 133
70 170 91 36 22 68 39 70 39 2 0 -2 -37 -9 -82 -8 -46 -16 -110 -18 -143 -3
-33 -12 -114 -20 -180 -9 -66 -17 -150 -19 -187 -3 -50 -9 -71 -25 -87 -57
-57 13 -185 84 -153 33 15 57 71 49 112 -4 17 -19 41 -34 54 -26 21 -27 26
-19 67 4 24 9 85 10 134 0 50 4 115 8 145 l7 55 21 -40 c30 -57 121 -260 148
-330 13 -33 26 -68 30 -79 7 -15 5 -17 -13 -12 -28 9 -55 -31 -50 -76 2 -26 8
-34 26 -36 17 -3 25 4 36 28 12 31 14 27 30 -92 21 -145 35 -475 35 -855 1
-175 5 -273 11 -273 13 0 12 409 -1 770 -7 196 -15 299 -32 398 l-23 133 25
37 c49 73 182 221 319 354 l140 135 -46 47 -47 46 52 0 c46 0 52 3 56 23 7 35
8 -285 1 -336 -6 -38 -10 -46 -33 -51 -43 -9 -88 -43 -118 -87 -27 -41 -28
-48 -27 -162 l1 -118 -24 6 -23 5 0 -112 c0 -62 -3 -142 -6 -178 l-6 -65 33
-18 c33 -16 48 -25 99 -58 36 -23 123 -29 193 -13 32 8 63 12 68 9 14 -10 49
14 48 33 -1 15 -2 15 -6 0 -5 -20 -25 -29 -43 -18 -14 9 -5 30 13 30 9 0 12
44 12 163 0 150 2 165 23 202 12 22 22 52 22 67 0 15 5 30 11 34 17 10 1 112
-28 172 -26 54 -72 95 -124 107 l-26 6 1 300 c1 164 1 299 1 299 0 0 24 -9 53
-20 29 -11 60 -20 70 -19 9 0 -9 10 -40 20 -39 14 -67 32 -88 57 -61 72 -81
89 -120 102 -29 9 -40 19 -40 33 0 11 -8 26 -17 33 -17 11 -16 13 9 23 36 13
42 28 18 41 -23 12 -50 60 -50 89 0 23 70 114 106 137 38 26 92 6 139 -51 20
-25 44 -45 54 -45 10 0 31 18 46 40 20 28 45 48 87 67 42 18 70 40 98 76 101
127 118 231 61 369 -73 175 -153 229 -270 182 -66 -26 -81 -18 -123 65 -39 80
-106 155 -180 202 -69 44 -193 89 -266 96 -90 9 -102 23 -102 128 0 45 -7 105
-15 133 l-16 52 -42 -1 c-23 -1 -53 -4 -66 -8z m31 -88 c16 -35 22 -69 22
-123 1 -82 -13 -128 -46 -149 -19 -12 -19 -11 3 20 18 25 25 50 27 101 4 60 1
74 -27 127 -36 69 -36 71 -15 71 8 0 24 -20 36 -47z m252 -265 c-4 -7 -3 -8 4
-4 31 19 155 -78 194 -152 11 -21 22 -31 29 -26 7 4 9 3 5 -4 -3 -6 14 -50 39
-97 25 -48 45 -93 45 -101 0 -11 -115 -84 -132 -84 -6 0 -8 12 -11 74 -2 28
-9 52 -15 54 -7 2 -12 9 -12 15 0 24 -55 154 -86 202 -34 53 -58 81 -92 105
-16 10 -18 16 -9 22 19 12 49 10 41 -4z m-384 -33 c-7 -8 -18 -15 -24 -15 -32
0 -113 -125 -175 -272 -11 -27 -24 -48 -30 -48 -21 0 -61 24 -61 36 0 47 94
192 162 249 55 47 159 87 128 50z m97 -15 c8 -12 9 -21 3 -25 -6 -3 -10 1 -10
9 0 8 -8 20 -17 25 -14 8 -15 10 -3 11 8 0 21 -9 27 -20z m109 -11 c19 -22 19
-22 -3 -10 -24 12 -39 31 -25 31 5 0 17 -10 28 -21z m79 1 c-3 -5 0 -10 7 -10
8 0 36 -24 64 -53 38 -40 57 -74 79 -133 16 -43 28 -82 27 -86 -1 -5 4 -8 11
-8 21 -1 -64 -27 -146 -45 -43 -10 -79 -16 -81 -14 -6 7 13 246 23 288 5 24 5
39 0 35 -11 -6 -11 -1 -3 20 3 9 10 16 16 16 5 0 6 -4 3 -10z m-240 -17 c-12
-2 -26 -17 -32 -34 -8 -20 -16 -28 -24 -23 -7 4 -9 3 -6 -3 6 -10 -4 -41 -37
-118 -15 -32 -30 -83 -40 -127 -6 -28 -28 -36 -54 -19 -20 12 38 140 127 276
31 48 40 55 66 53 19 -1 19 -1 0 -5z m157 -89 c-6 -27 -14 -94 -17 -150 l-7
-101 -51 -10 c-44 -9 -53 -8 -64 6 -10 13 -15 14 -32 4 -23 -14 -57 -17 -64
-5 -8 11 29 145 56 204 18 39 34 57 59 70 19 9 46 30 59 46 l24 30 24 -23 c21
-21 22 -26 13 -71z m476 26 c58 -57 120 -175 105 -199 -13 -20 -33 -26 -33 -9
0 7 -14 40 -30 73 -16 33 -30 65 -30 72 0 6 -4 13 -8 15 -13 5 -72 98 -63 98
5 0 31 -22 59 -50z m-1068 -135 c54 -28 82 -95 39 -95 -48 0 -85 -45 -125
-154 -13 -34 -23 -56 -23 -51 -1 6 -8 44 -17 85 -20 98 -12 164 26 202 32 32
58 35 100 13z m920 -99 c0 -31 -72 -156 -90 -156 -5 0 -14 9 -20 21 -9 16 -8
24 4 38 9 10 21 32 27 50 6 18 21 36 33 41 22 9 46 12 46 6z m-900 -31 c-33
-35 -51 -112 -39 -166 12 -52 41 -102 72 -122 21 -13 52 -85 42 -95 -10 -11
-95 42 -122 76 -50 62 -66 100 -58 141 10 54 50 138 81 166 35 32 55 33 24 0z
m1140 12 c-19 -17 -277 -177 -285 -177 -24 0 19 33 140 105 132 79 178 102
145 72z m293 -17 c60 -52 111 -212 91 -281 l-10 -34 -18 60 c-38 129 -104 193
-189 182 -23 -3 -50 -8 -59 -12 -26 -10 -23 24 5 57 52 64 127 75 180 28z
m-1397 -37 c-8 -56 -8 -56 2 -153 5 -41 7 -77 5 -79 -7 -9 -38 27 -54 64 -30
66 -22 153 18 197 27 30 36 21 29 -29z m1155 11 c14 -64 9 -158 -11 -203 -11
-24 -20 -49 -20 -56 0 -26 -34 -121 -50 -140 -10 -11 -16 -27 -13 -35 4 -13 3
-13 -6 0 -7 11 -2 37 17 90 23 66 27 92 29 213 2 136 10 173 37 164 6 -2 14
-17 17 -33z m-642 -28 c8 -10 9 -16 2 -21 -13 -7 -51 12 -51 25 0 15 36 12 49
-4z m-65 -19 c22 -10 37 -20 34 -22 -3 -3 -22 2 -44 11 -21 10 -79 20 -129 25
l-90 7 95 -2 c64 -1 108 -7 134 -19z m599 -44 c-6 -120 -16 -160 -99 -403 -3
-8 -16 -23 -30 -33 l-24 -18 6 123 c3 68 6 165 7 217 l2 95 64 43 c36 24 68
43 71 43 4 0 5 -30 3 -67z m-847 15 c-10 -5 -23 -5 -33 1 -15 8 -11 10 15 9
26 -1 30 -3 18 -10z m384 -3 c29 -17 78 -19 114 -5 29 11 48 -6 25 -22 -21
-13 -163 -5 -182 11 -34 28 0 40 43 16z m260 11 c0 -2 -8 -10 -17 -17 -16 -13
-17 -12 -4 4 13 16 21 21 21 13z m516 -17 c62 -38 120 -209 90 -266 -19 -37
-64 -79 -99 -92 -32 -13 -137 -15 -137 -3 0 4 9 13 19 19 26 16 71 94 81 139
16 68 -31 163 -94 189 l-31 14 25 10 c43 17 110 13 146 -10z m-898 -34 c-3 -3
-9 2 -12 12 -6 14 -5 15 5 6 7 -7 10 -15 7 -18z m813 -46 c35 -49 36 -109 5
-173 -31 -62 -77 -107 -103 -99 -10 2 -27 11 -37 18 -17 13 -18 16 -3 39 31
46 57 144 57 211 l0 66 29 -16 c16 -8 39 -29 52 -46z m-431 -91 c-1 -181 -35
-352 -74 -364 -11 -4 -33 -15 -48 -26 -16 -11 -28 -17 -28 -13 0 3 -21 -10
-46 -30 -26 -19 -53 -35 -61 -35 -8 0 -12 -4 -9 -8 10 -16 -50 -40 -126 -52
-96 -14 -176 -1 -262 42 -72 36 -146 87 -146 101 0 5 6 4 14 -2 13 -11 40 -16
121 -26 17 -2 45 -6 63 -10 17 -4 32 -4 32 1 0 5 21 10 48 11 63 2 104 9 148
28 21 8 45 13 55 10 10 -3 26 -2 36 4 10 5 25 12 33 16 30 12 55 30 56 40 0 6
6 24 14 40 17 39 24 113 9 98 -8 -8 -20 6 -43 51 -45 86 -44 101 4 103 21 1
53 9 71 18 53 24 119 75 119 91 0 8 5 14 10 14 6 0 10 -41 10 -102z m-600 69
c0 -8 -11 -24 -25 -37 -60 -57 -109 -183 -122 -313 -4 -44 -10 -66 -17 -62 -6
3 -19 8 -30 11 -16 6 -18 16 -14 94 5 109 37 178 121 262 57 56 87 72 87 45z
m225 3 c3 -6 -1 -7 -9 -4 -18 7 -21 14 -7 14 6 0 13 -4 16 -10z m-412 -75 c4
-42 3 -55 -4 -43 -14 25 -24 126 -12 113 6 -5 13 -37 16 -70z m77 41 c0 -3 -4
-8 -10 -11 -5 -3 -10 -1 -10 4 0 6 5 11 10 11 6 0 10 -2 10 -4z m899 -732 c43
-55 52 -154 21 -256 l-10 -36 -60 5 c-33 3 -60 3 -60 -1 0 -4 23 -29 52 -55
l52 -48 -170 -169 c-93 -93 -192 -198 -218 -234 -64 -84 -69 -90 -58 -60 43
111 178 391 269 558 61 112 119 230 129 263 10 32 21 59 25 59 4 0 17 -12 28
-26z m-588 -125 c-23 -19 -23 -19 -2 -19 15 0 21 -6 21 -24 0 -13 7 -61 15
-107 8 -46 21 -158 30 -249 9 -91 20 -196 26 -234 5 -38 8 -71 6 -73 -2 -2
-12 18 -22 44 -10 27 -52 121 -93 211 -83 181 -87 210 -36 264 l28 28 -24 0
c-22 0 -22 3 -17 49 9 77 59 163 81 141 8 -8 4 -17 -13 -31z m57 -104 c0 -25
-2 -24 -9 10 -10 51 -10 92 1 50 4 -16 8 -43 8 -60z m176 34 c-3 -5 -1 -9 4
-9 5 0 12 -10 15 -22 5 -20 3 -19 -18 7 -28 34 -32 47 -10 39 8 -4 12 -10 9
-15z m513 -555 c52 -39 66 -69 69 -141 1 -41 -5 -85 -14 -111 l-15 -43 -66 3
-66 3 -5 55 c-6 63 -15 81 -35 73 -11 -4 -15 -21 -15 -63 0 -33 -4 -61 -9 -64
-5 -3 -29 -3 -54 0 -44 6 -45 7 -49 46 -7 78 9 199 30 220 49 49 176 61 229
22z m-946 -170 c-5 -16 -10 -21 -10 -12 -1 18 10 51 15 45 2 -1 -1 -16 -5 -33z
m646 -136 c5 -7 15 -51 22 -97 14 -94 49 -196 87 -253 13 -21 22 -38 20 -38
-18 0 -56 26 -65 44 -11 21 -11 21 -5 -1 7 -29 -6 -29 -51 1 -20 14 -39 26
-43 28 -5 2 -6 76 -4 166 3 121 8 162 17 162 7 0 17 -6 22 -12z m161 -30 c3
-28 3 -28 -57 -28 l-61 0 0 30 0 31 58 -3 c54 -3 57 -4 60 -30z m172 13 c0
-29 -58 -189 -92 -253 -16 -31 -40 -66 -53 -78 l-24 -22 -31 48 c-32 52 -80
188 -80 230 0 22 4 24 51 24 38 0 55 -5 65 -17 12 -17 14 -17 26 -2 7 9 20 19
28 22 10 4 7 6 -7 6 -19 1 -23 7 -23 31 l0 30 70 0 c62 0 70 -2 70 -19z m10
-230 l0 -98 -43 -17 c-23 -9 -53 -16 -66 -16 l-22 0 21 30 c12 16 39 68 61
115 22 47 42 85 44 85 3 0 5 -44 5 -99z"/>
<path d="M2914 2835 c-11 -15 -38 -51 -61 -81 -24 -29 -43 -61 -43 -70 0 -10
11 -32 26 -51 30 -39 62 -43 106 -12 66 48 153 56 220 23 37 -19 61 -17 92 7
33 26 34 71 5 139 -27 64 -65 82 -107 52 -46 -33 -76 -36 -124 -14 -75 36 -93
37 -114 7z"/>
<path d="M3590 2723 c0 -6 -9 -13 -20 -16 -23 -6 -18 -33 9 -54 19 -14 41 1
41 26 -1 18 -30 61 -30 44z"/>
<path d="M2525 2120 c11 -5 29 -8 40 -8 16 0 15 2 -5 8 -34 11 -60 11 -35 0z"/>
<path d="M2598 2103 c7 -3 16 -2 19 1 4 3 -2 6 -13 5 -11 0 -14 -3 -6 -6z"/>
<path d="M2648 2093 c6 -2 18 -2 25 0 6 3 1 5 -13 5 -14 0 -19 -2 -12 -5z"/>
<path d="M2716 1965 c-9 -26 -7 -32 5 -12 6 10 9 21 6 23 -2 3 -7 -2 -11 -11z"/>
<path d="M2682 1853 c-11 -43 -23 -103 -26 -133 -5 -46 -3 -41 13 30 11 47 24
105 30 129 7 24 10 45 8 47 -2 2 -13 -31 -25 -73z"/>
<path d="M1166 1773 c-3 -10 -17 -76 -32 -148 -47 -236 -99 -412 -171 -579
-18 -43 -32 -81 -30 -83 10 -10 133 314 163 430 23 88 84 391 79 395 -2 2 -6
-5 -9 -15z"/>
<path d="M2830 1763 c0 -7 -12 -20 -27 -28 -16 -9 -19 -13 -8 -9 11 4 28 7 38
8 19 0 21 5 7 26 -6 9 -10 11 -10 3z"/>
<path d="M1205 1710 c7 -44 138 -445 142 -433 2 5 -15 62 -37 128 -22 65 -40
132 -40 148 0 15 -4 26 -8 23 -5 -3 -21 34 -35 82 -15 48 -25 71 -22 52z"/>
<path d="M1242 1685 c0 -16 2 -22 5 -12 2 9 2 23 0 30 -3 6 -5 -1 -5 -18z"/>
<path d="M2825 1693 c-15 -12 -16 -14 -3 -10 17 6 33 -17 22 -34 -8 -14 9 -10
31 7 l20 16 -20 -4 c-15 -2 -20 2 -19 20 1 26 -4 27 -31 5z"/>
<path d="M1251 1634 c0 -11 3 -14 6 -6 3 7 2 16 -1 19 -3 4 -6 -2 -5 -13z"/>
<path d="M2878 1631 c-16 -9 -28 -20 -28 -25 0 -5 7 -3 15 4 8 7 15 9 15 4 0
-5 4 -3 9 5 8 13 12 13 28 0 17 -13 17 -13 3 6 -8 11 -14 20 -15 21 0 0 -12
-6 -27 -15z"/>
<path d="M3030 1627 c0 -23 252 -501 270 -512 5 -3 -13 34 -40 82 -26 49 -89
167 -139 263 -50 96 -91 172 -91 167z"/>
<path d="M2913 1553 c-15 -6 -17 -39 -3 -48 6 -4 7 1 3 11 -4 11 1 22 12 30
19 14 12 17 -12 7z"/>
<path d="M2957 1539 c4 -13 8 -18 11 -10 2 7 -1 18 -6 23 -8 8 -9 4 -5 -13z"/>
<path d="M2951 1486 c-7 -9 -11 -21 -8 -28 4 -9 6 -7 6 3 1 20 31 33 44 20 15
-15 1 -39 -25 -44 -21 -4 -21 -4 -2 -6 30 -2 51 26 37 47 -14 23 -37 26 -52 8z"/>
<path d="M2650 1421 c19 -4 50 -15 68 -24 17 -10 32 -13 32 -8 0 15 -66 41
-102 40 l-33 -1 35 -7z"/>
<path d="M2997 1414 c-15 -8 -25 -19 -22 -24 3 -5 15 0 26 11 15 15 24 18 31
11 16 -16 2 -40 -24 -45 -21 -4 -21 -4 -2 -6 28 -1 47 23 39 49 -8 24 -11 24
-48 4z"/>
<path d="M2697 1356 c3 -20 -5 -84 -20 -153 -35 -159 -35 -162 -47 -288 -16
-169 -17 -172 -50 -173 -33 -1 -81 -23 -101 -48 -9 -12 1 -9 32 9 61 36 75 35
83 -8 5 -27 1 -42 -20 -75 -15 -22 -25 -43 -22 -46 3 -3 16 11 28 31 12 20 26
33 30 28 11 -11 68 -194 86 -273 8 -36 16 -74 19 -86 4 -19 -3 -23 -63 -39
-37 -10 -73 -25 -80 -32 -7 -7 -22 -13 -32 -13 -10 0 -22 -4 -25 -10 -3 -5 0
-10 7 -10 7 0 -2 -9 -20 -20 -18 -11 -44 -20 -57 -20 -28 0 -105 -64 -105 -86
0 -17 -1 -17 75 0 99 22 185 48 185 57 0 5 6 6 13 3 19 -7 177 56 295 117
l103 54 -39 17 c-51 23 -149 48 -185 48 -19 0 -27 4 -24 12 2 7 43 106 90 219
47 113 95 238 107 277 l22 72 41 -6 c40 -6 41 -5 22 10 -20 15 -20 15 0 16 12
0 26 -5 33 -12 6 -6 15 -8 19 -4 5 4 -2 16 -14 25 l-22 18 22 22 21 21 -21 0
c-12 0 -48 -10 -80 -21 -48 -18 -58 -20 -65 -8 -5 8 -40 67 -78 132 -82 138
-130 231 -130 251 0 11 -20 26 -35 26 -2 0 -1 -15 2 -34z"/>
<path d="M3037 1346 c-17 -13 -16 -14 2 -19 14 -3 18 -1 14 9 -6 17 9 18 26 2
10 -11 11 -10 6 5 -8 20 -23 21 -48 3z"/>
<path d="M3088 1274 c-16 -8 -28 -19 -28 -25 0 -6 7 -3 16 5 8 9 22 16 30 16
17 0 19 -36 2 -43 -10 -4 -10 -6 0 -6 17 -1 26 26 16 49 -8 17 -11 17 -36 4z"/>
<path d="M3112 1198 c-7 -7 -12 -16 -12 -22 0 -5 6 -2 14 9 8 12 20 16 35 12
11 -3 19 -1 15 4 -8 13 -38 11 -52 -3z"/>
<path d="M1352 1183 c-5 -10 -33 -81 -63 -157 -43 -112 -59 -143 -81 -155 -34
-20 -36 -41 -4 -41 19 0 25 -6 29 -32 2 -18 35 -109 72 -203 89 -224 89 -262
-3 -312 -32 -18 -77 -46 -102 -64 -39 -29 -42 -33 -25 -40 29 -11 32 -11 37 9
5 16 88 72 132 88 16 6 18 4 13 -10 -4 -10 -7 -31 -7 -48 0 -21 -10 -39 -31
-59 l-31 -29 27 -10 c39 -15 44 -13 49 23 37 224 40 272 41 537 0 265 -16 504
-36 515 -4 3 -12 -2 -17 -12z m22 -120 c11 -74 19 -593 9 -593 -17 0 -97 193
-131 312 -15 54 -15 60 2 110 31 88 90 208 102 208 7 0 14 -17 18 -37z"/>
<path d="M3156 1165 c-11 -8 -15 -15 -9 -15 6 0 16 7 23 15 16 19 11 19 -14 0z"/>
<path d="M3195 1140 c3 -5 -7 -16 -22 -25 -15 -9 -19 -13 -8 -9 11 4 28 7 37
8 13 0 14 4 7 18 -5 10 -12 18 -15 18 -3 0 -3 -4 1 -10z"/>
<path d="M3197 1079 c-18 -10 -23 -44 -9 -53 5 -3 8 5 8 17 -1 15 6 23 22 25
27 4 30 -22 5 -38 -16 -10 -16 -10 2 -8 27 4 32 44 8 56 -12 7 -25 7 -36 1z"/>
<path d="M3321 1054 c0 -11 3 -14 6 -6 3 7 2 16 -1 19 -3 4 -6 -2 -5 -13z"/>
<path d="M3239 999 l-24 -21 26 15 c25 15 39 13 39 -5 0 -4 -6 -8 -14 -8 -8 0
-16 -6 -19 -14 -4 -11 -1 -11 19 -2 27 12 31 28 10 45 -10 9 -19 6 -37 -10z"/>
<path d="M3321 947 c-6 -35 -29 -115 -52 -178 -112 -313 -149 -423 -136 -409
22 22 187 505 199 578 5 35 8 66 5 68 -3 3 -10 -24 -16 -59z"/>
<path d="M911 921 c-7 -16 -11 -42 -8 -57 4 -28 4 -28 6 4 0 18 6 42 12 54 6
11 9 22 6 24 -2 3 -10 -9 -16 -25z"/>
<path d="M1763 878 c-27 -36 -18 -88 16 -88 37 0 53 56 25 84 -19 19 -28 20
-41 4z"/>
<path d="M910 824 c0 -23 57 -207 91 -294 22 -58 53 -139 68 -180 45 -119 61
-153 67 -147 3 3 -30 97 -74 209 -77 195 -109 285 -132 376 -9 36 -20 56 -20
36z"/>
<path d="M2366 663 c-10 -50 -16 -97 -14 -104 6 -19 41 153 36 176 -2 11 -12
-21 -22 -72z"/>
<path d="M1779 466 c-17 -37 -4 -78 24 -74 26 4 35 45 17 78 -14 27 -28 25
-41 -4z"/>
<path d="M1760 151 c-13 -26 -13 -43 3 -65 20 -27 57 -5 57 32 0 48 -40 70
-60 33z"/>
</g>
</svg>
